<svg width="138" height="111" viewBox="0 0 138 111" fill="none" xmlns="http://www.w3.org/2000/svg">
<path d="M3.09535 24.5054L2.74197 17.0769C2.74197 12.5478 4.60352 8.20426 7.9171 5.00172C11.2307 1.79917 15.7249 0 20.411 0H52.8513C57.537 0.000967193 62.0304 1.80077 65.3432 5.00354L72.6582 12.0734C75.971 15.2762 80.4645 17.076 85.1502 17.0769H120.329C122.784 17.0767 125.213 17.571 127.459 18.5284C129.706 19.4858 131.722 20.8852 133.377 22.6373C135.033 24.3895 136.293 26.456 137.076 28.705C137.86 30.9539 138.15 33.336 137.927 35.6993L132.3 95.4685C131.901 99.7114 129.876 103.657 126.621 106.531C123.367 109.404 119.119 110.998 114.71 111H23.291C18.8829 110.998 14.6347 109.404 11.3803 106.531C8.12593 103.657 6.10046 99.7114 5.70153 95.4685L0.0739518 35.6993C-0.30252 31.7441 0.766524 27.7865 3.09535 24.5139V24.5054ZM17.6723 25.6154C16.445 25.6153 15.2312 25.8624 14.1083 26.3408C12.9853 26.8192 11.9778 27.5185 11.1499 28.3942C10.3221 29.2698 9.6921 30.3025 9.30009 31.4265C8.90808 32.5504 8.76266 33.741 8.87311 34.9223L14.5007 94.6915C14.699 96.813 15.7107 98.7862 17.3371 100.224C18.9634 101.661 21.087 102.46 23.291 102.462H114.71C116.914 102.46 119.038 101.661 120.664 100.224C122.291 98.7862 123.302 96.813 123.501 94.6915L129.128 34.9223C129.239 33.741 129.093 32.5504 128.701 31.4265C128.309 30.3025 127.679 29.2698 126.852 28.3942C126.024 27.5185 125.016 26.8192 123.893 26.3408C122.77 25.8624 121.556 25.6153 120.329 25.6154H17.6723ZM59.1061 11.0402C58.2849 10.2463 57.3097 9.61666 56.2364 9.18737C55.1631 8.75809 54.0128 8.53758 52.8513 8.53846H20.411C18.0967 8.53806 15.8747 9.41534 14.2226 10.9817C12.5706 12.548 11.6204 14.6784 11.5765 16.9147L11.6295 18.1015C13.5201 17.4355 15.552 17.0769 17.6723 17.0769H65.3432L59.1061 11.0402Z" fill="#00C2FF"/>
</svg>
